<svg width="1920" height="1080" viewBox="0 0 1920 1080" fill="none" xmlns="http://www.w3.org/2000/svg">
<g clip-path="url(#clip0_16_2)">
<rect width="1920" height="1080" fill="#190E44"/>
<path d="M1108.95 535.005C590.844 452.681 153.772 144.033 0 0V1080H1918C1864.2 932.636 1627.06 617.328 1108.95 535.005Z" fill="url(#paint0_linear_16_2)"/>
<path d="M1632.46 525.985C1424.95 665.714 1401.22 956.216 1415.29 1084H1920V0C1910.62 117.108 1839.97 386.256 1632.46 525.985Z" fill="url(#paint1_linear_16_2)"/>
<path d="M341.7 709.405C262.454 532.242 80.8807 417.984 0 383V1080H854C716.253 1030.29 420.946 886.567 341.7 709.405Z" fill="url(#paint2_linear_16_2)"/>
</g>
<defs>
<linearGradient id="paint0_linear_16_2" x1="959" y1="0" x2="959" y2="1080" gradientUnits="userSpaceOnUse">
<stop stop-color="#0A0078"/>
<stop offset="1" stop-color="#16045B"/>
</linearGradient>
<linearGradient id="paint1_linear_16_2" x1="1666" y1="0" x2="1666" y2="1084" gradientUnits="userSpaceOnUse">
<stop stop-color="#F8BE29"/>
<stop offset="1" stop-color="#FF8F0C"/>
</linearGradient>
<linearGradient id="paint2_linear_16_2" x1="427" y1="383" x2="427" y2="1080" gradientUnits="userSpaceOnUse">
<stop stop-color="#FF5555"/>
<stop offset="1" stop-color="#FD1D96"/>
</linearGradient>
<clipPath id="clip0_16_2">
<rect width="1920" height="1080" fill="white"/>
</clipPath>
</defs>
</svg>
