<svg width="500" height="500" viewBox="0 0 500 500" fill="none" xmlns="http://www.w3.org/2000/svg">
<rect x="14" y="14" width="472" height="472" rx="26" fill="#440FDA" stroke="#1D004D" stroke-width="28"/>
<path d="M283.5 158.5C283.5 154.833 283.167 151.167 282.5 147.5C282.167 143.5 281.167 140 279.5 137C278.167 133.667 276 131 273 129C270.333 127 266.5 126 261.5 126C255.167 126 249.833 128 245.5 132C243.5 126.667 242.5 121.833 242.5 117.5C242.5 112.167 243.333 107 245 102C247 96.6667 250 92 254 88C258 84 263 80.8333 269 78.5C275.333 75.8333 283 74.5 292 74.5C312 74.5 327.5 80.5 338.5 92.5C349.5 104.5 355 121 355 142V375.5C355 389.5 353 400.667 349 409C345 417.333 339.5 423.667 332.5 428C325.833 432 318.167 434.667 309.5 436C301.167 437.333 292.5 438 283.5 438V158.5ZM234.5 353.5C234.5 357.167 234.667 361 235 365C235.667 368.667 236.667 372.167 238 375.5C239.667 378.5 241.833 381 244.5 383C247.5 385 251.5 386 256.5 386C262.5 386 267.833 384 272.5 380C273.5 382.667 274.167 385.167 274.5 387.5C275.167 389.5 275.5 391.833 275.5 394.5C275.5 399.833 274.5 405.167 272.5 410.5C270.833 415.5 268 420 264 424C260 428 254.833 431.333 248.5 434C242.5 436.333 235 437.5 226 437.5C206 437.5 190.5 431.5 179.5 419.5C168.5 407.5 163 391 163 370V136.5C163 122.5 165 111.333 169 103C173 94.6666 178.333 88.5 185 84.5C192 80.1667 199.667 77.3333 208 76C216.667 74.6666 225.5 74 234.5 74V353.5Z" fill="white"/>
</svg>
